<?xml version="1.0" standalone="no"?>
<!DOCTYPE svg PUBLIC "-//W3C//DTD SVG 20010904//EN"
 "http://www.w3.org/TR/2001/REC-SVG-20010904/DTD/svg10.dtd">
<svg version="1.0" xmlns="http://www.w3.org/2000/svg"
 width="512.000000pt" height="512.000000pt" viewBox="0 0 512.000000 512.000000"
 preserveAspectRatio="xMidYMid meet">
<metadata>
Created by potrace 1.11, written by Peter Selinger 2001-2013
</metadata>
<g transform="translate(0.000000,512.000000) scale(0.100000,-0.100000)"
fill="#000000" stroke="none">
<path d="M2265 5024 c-142 -17 -301 -52 -443 -96 l-103 -32 63 -21 c210 -72
383 -203 520 -396 262 -368 329 -970 162 -1450 -67 -192 -157 -341 -285 -468
-136 -136 -280 -220 -471 -272 -82 -23 -93 -23 -683 -26 l-600 -4 -55 33 c-41
25 -60 45 -80 83 l-25 49 -5 531 -5 530 -42 -125 c-52 -154 -76 -249 -105
-416 -30 -175 -33 -558 -5 -734 70 -450 240 -844 515 -1195 89 -114 328 -345
452 -437 343 -255 708 -407 1140 -475 160 -25 537 -25 700 0 383 59 724 191
1035 399 130 87 217 159 211 175 -7 16 -1143 1460 -1157 1468 -5 4 -9 -313 -9
-846 0 -642 -3 -862 -12 -892 -7 -23 -31 -60 -53 -83 -116 -121 -321 -62 -355
100 -7 35 -10 434 -8 1231 l3 1180 22 41 c27 51 80 98 128 114 20 7 67 10 103
8 133 -7 76 56 882 -973 l725 -926 5 873 c5 955 2 906 64 971 37 40 85 57 159
57 84 0 143 -36 178 -106 l24 -49 5 -605 5 -605 42 125 c50 147 85 291 110
450 25 161 25 539 0 700 -69 447 -240 844 -515 1195 -83 105 -334 350 -445
434 -516 386 -1159 560 -1792 485z"/>
<path d="M969 4464 c-24 -21 -86 -78 -136 -128 l-93 -91 0 -778 0 -778 388 3
387 3 80 28 c100 35 154 70 227 144 161 165 238 402 239 729 0 464 -179 777
-501 880 -44 14 -104 18 -301 22 l-247 4 -43 -38z"/>
</g>
</svg>
